<svg xmlns="http://www.w3.org/2000/svg" viewBox="0 0 1919.6 296.7" fill="#0054a7"><path d="M0 96.1c20.4.1 40.8.3 61.1.1 4.7-.1 7 1.5 9.3 5.5 24.9 43.3 49.9 86.5 75 129.7l3.3 5.2 7.7-13c23.6-40.8 47.3-81.6 70.8-122.5 2.1-3.6 4.2-4.9 8.4-4.9 18.8.3 37.7.1 56.6.1h5v195l.3 5.4H0V96.1z"/><path d="M0 0l5.5.2h291.4v71.5H292c-23.9 0-47.7.1-71.6-.1-3.2 0-5 .9-6.6 3.7l-63.2 109.5-1.9 3-2.5-4c-21-36.2-41.9-72.5-63-108.7-.9-1.5-3-3.3-4.5-3.3H0V0zm1348.8 49.6v245h-57.1V5.2h4.4l92.6-.1c3.1 0 4.5.6 5.5 3.9l59.3 203.8c.3 1.2.8 2.3 1.6 4.6 1-2.2 1.6-3.5 2-4.8l56.3-178.2 8.3-26.2c.6-1.9 1.2-3.1 3.6-3.1l92.6.1c.4 0 .8.2 1.5.4v288.9h-57.1V48.1l-1.1-.3-2.3 5.6-70.7 215.6c-2.5 7.5-5.1 15-7.3 22.6-.8 2.7-2.2 3.3-4.8 3.3h-44.4c-2.7 0-3.8-1-4.6-3.5l-50.9-160.7-24.2-76.2c-.5-1.7-1.3-3.3-1.9-5l-1.3.1zM995.6 5.4l4.4-.2c27.8 0 55.6.1 83.4-.1 3.4 0 4.9 1.2 6.3 4l106.1 216.4c.9 1.8 2 3.6 4 5.3V5.5h57.4v289.2l-4.1.2-80.4.1c-3 0-4.7-.7-6-3.6L1056.1 60.1a9 9 0 00-2.9-3.7v238.2h-57.4c-.2-96.3-.2-192.5-.2-289.2zm-19.5 289.3l-4.1.2c-17.9 0-35.7-.1-53.6.1-3.5 0-4.8-1.2-5.9-4.3l-19.1-53.3c-.9-2.7-2.1-3.7-5-3.7H780.3c-3.1 0-4.3 1.1-5.3 3.9-6.2 17.7-12.7 35.3-18.9 53-1.1 3.3-2.7 4.5-6.2 4.4-16.6-.2-33.2-.1-49.8-.1h-4.6l10.3-28.7L799.1 9.4c1.2-3.4 2.8-4.3 6.2-4.3 21.4.2 42.7.2 64.1 0 3.7 0 5.3 1.1 6.5 4.5L946.3 210l28.1 79.7c.7 1.6 1.1 3.1 1.7 5zm-99.5-109.1L836.7 61.3h-1.5l-43.1 124.3h84.5zm1042.5 109.1l-3.9.2c-18 0-36-.1-54 .1-3.2 0-4.6-1.1-5.6-4-6.2-17.7-12.6-35.3-18.9-53-1.1-3-2.4-4.3-5.9-4.3-35.7.2-71.5.1-107.2 0-2.9 0-4.4.8-5.4 3.7l-19.1 53.3c-1.1 3.1-2.5 4.2-5.9 4.2-18-.2-36-.1-54.6-.1l6.5-18.3 96.8-266.6c1.3-3.5 2.7-4.9 6.7-4.8 21.6.2 43.3.2 64.9 0 2.8 0 4.1.7 5.1 3.5a118790.7 118790.7 0 00100.5 286.1zm-99.6-109.2l-39.9-124.1-1.5-.1-43.1 124.2h84.5zM503.3 294.4h-62.4V53.1h-86.3V5.2h234.6v47.6h-85.9v241.6zm111.2-289h61.9v289.1h-61.9V5.4z"/></svg>